<svg width="200" height="200" viewBox="0 0 200 200" fill="none" xmlns="http://www.w3.org/2000/svg">
<rect width="200" height="200" rx="40" fill="white"/>
<path d="M143.697 160.697L143.214 160.443C141.535 159.559 140.501 157.8 140.544 155.903L141.945 95.221C141.963 94.4188 141.789 93.6239 141.435 92.9035L118.505 46.162C117.168 43.435 118.55 40.155 121.437 39.2087L141.191 32.7318C144.013 31.8064 147.015 33.531 147.638 36.4353L159.786 93.128C159.91 93.7048 159.93 94.2989 159.847 94.8828L150.976 156.98C150.487 160.402 146.756 162.307 143.697 160.697Z" fill="url(#paint0_linear_654_49)"/>
<path fill-rule="evenodd" clip-rule="evenodd" d="M79.1023 101.253C79.9948 100.763 80.7163 100.012 81.1704 99.1003C80.7163 100.012 79.9948 100.763 79.1023 101.253Z" fill="url(#paint1_linear_654_49)"/>
<path d="M104.044 53.1913L81.1704 99.1003C80.7163 100.012 79.9948 100.763 79.1023 101.253L48.5773 118.02C46.4831 119.171 45.4954 121.642 46.2199 123.919L46.7311 125.526C47.6516 128.418 50.9166 129.83 53.6548 128.519L94.4418 108.994C95.1205 108.669 95.7172 108.195 96.1872 107.607L121.447 76.0331C122.679 74.4923 122.89 72.3707 121.986 70.6171L112.963 53.1285C111.085 49.4899 105.87 49.5266 104.044 53.1913Z" fill="url(#paint2_linear_654_49)"/>
<path d="M144.796 163.625L141.809 161.729C140.739 161.05 139.358 161.116 138.358 161.895L137.941 162.22C137.32 162.703 136.914 163.41 136.81 164.189L136.372 167.461C136.288 168.087 136.405 168.725 136.705 169.281L137.752 171.227C138.183 172.026 138.952 172.588 139.845 172.754L159.258 176.367C159.728 176.454 160.212 176.428 160.669 176.291L163.843 175.339C164.568 175.121 165.182 174.633 165.558 173.976C166.347 172.595 165.901 170.837 164.548 170L153.183 162.971C152.387 162.478 151.406 162.386 150.531 162.721L147.478 163.893C146.592 164.232 145.597 164.133 144.796 163.625Z" fill="#1B3D64"/>
<path d="M43.0401 122.73L44.3867 119.417C44.857 118.261 44.5617 116.934 43.6453 116.086L43.3938 115.853C42.8041 115.307 42.0201 115.021 41.2175 115.058L37.886 115.212C37.2939 115.24 36.7232 115.442 36.2459 115.793L34.4023 117.151C33.6344 117.716 33.1811 118.613 33.1811 119.567L33.1811 140.277C33.1811 140.752 33.2941 141.221 33.5107 141.644L34.2377 143.064C34.6968 143.96 35.5754 144.567 36.5767 144.678L37.2097 144.749C38.5477 144.897 39.8209 144.136 40.3238 142.888L45.1619 130.876C45.5151 129.999 45.4342 129.006 44.9436 128.198L43.2548 125.416C42.7623 124.605 42.6827 123.609 43.0401 122.73Z" fill="#1B3D64"/>
<defs>
<linearGradient id="paint0_linear_654_49" x1="102.473" y1="31" x2="102.473" y2="164" gradientUnits="userSpaceOnUse">
<stop stop-color="#91CEFF"/>
<stop offset="0.528846" stop-color="#62AAE5"/>
<stop offset="1" stop-color="#335C7D"/>
</linearGradient>
<linearGradient id="paint1_linear_654_49" x1="102.473" y1="31" x2="102.473" y2="164" gradientUnits="userSpaceOnUse">
<stop stop-color="#91CEFF"/>
<stop offset="0.528846" stop-color="#62AAE5"/>
<stop offset="1" stop-color="#335C7D"/>
</linearGradient>
<linearGradient id="paint2_linear_654_49" x1="102.473" y1="31" x2="102.473" y2="164" gradientUnits="userSpaceOnUse">
<stop stop-color="#91CEFF"/>
<stop offset="0.528846" stop-color="#62AAE5"/>
<stop offset="1" stop-color="#335C7D"/>
</linearGradient>
</defs>
</svg>
